<?xml version="1.0" encoding="UTF-8"?>
<!DOCTYPE svg PUBLIC "-//W3C//DTD SVG 1.1//EN" "http://www.w3.org/Graphics/SVG/1.1/DTD/svg11.dtd">
<svg xmlns="http://www.w3.org/2000/svg" version="1.1" width="1109px" height="1109px" style="shape-rendering:geometricPrecision; text-rendering:geometricPrecision; image-rendering:optimizeQuality; fill-rule:evenodd; clip-rule:evenodd" xmlns:xlink="http://www.w3.org/1999/xlink">
<g><path style="opacity:0.997" fill="#336565" d="M 527.5,-0.5 C 545.167,-0.5 562.833,-0.5 580.5,-0.5C 607.955,1.38816 635.288,5.22149 662.5,11C 729.915,23.9099 792.582,48.5766 850.5,85C 954.15,151.962 1028.32,242.796 1073,357.5C 1091.83,412.788 1103.66,469.454 1108.5,527.5C 1108.5,545.167 1108.5,562.833 1108.5,580.5C 1104.64,628.983 1095.8,676.649 1082,723.5C 1051.99,815.342 1001.82,894.509 931.5,961C 887.062,1000.43 838.062,1033.09 784.5,1059C 735.423,1080.02 684.423,1094.69 631.5,1103C 614.429,1105.56 597.429,1107.39 580.5,1108.5C 562.833,1108.5 545.167,1108.5 527.5,1108.5C 500.045,1106.61 472.712,1102.78 445.5,1097C 378.085,1084.09 315.418,1059.42 257.5,1023C 153.85,956.038 79.683,865.204 35,750.5C 16.1722,695.212 4.33886,638.546 -0.5,580.5C -0.5,562.833 -0.5,545.167 -0.5,527.5C 3.36167,479.017 12.195,431.351 26,384.5C 40.0335,339.439 59.7002,297.106 85,257.5C 144.551,165.147 224.051,95.6472 323.5,49C 372.565,27.98 423.565,13.3133 476.5,5C 493.571,2.4421 510.571,0.608762 527.5,-0.5 Z"/></g>
<g><path style="opacity:1" fill="#fefefe" d="M 684.5,958.5 C 594.833,959.833 505.167,959.833 415.5,958.5C 429.644,948.856 440.811,936.523 449,921.5C 463.833,893.335 474.5,863.668 481,832.5C 489.748,788.93 494.082,744.93 494,700.5C 480.463,683.251 467.297,665.751 454.5,648C 466.867,626.767 479.367,605.6 492,584.5C 494.017,580.406 495.183,576.072 495.5,571.5C 496.889,566.731 497.556,561.731 497.5,556.5C 498.185,544.415 499.518,532.415 501.5,520.5C 502.889,515.731 503.556,510.731 503.5,505.5C 505.364,489.192 507.031,472.859 508.5,456.5C 426.635,456.499 345.635,448.332 265.5,432C 243.335,426.967 221.668,420.3 200.5,412C 190.812,408.073 181.645,403.24 173,397.5C 172.592,393.038 173.259,388.705 175,384.5C 207.696,294.468 267.53,229.302 354.5,189C 422.886,160.124 494.22,147.458 568.5,151C 642.01,151.833 711.344,169.166 776.5,203C 847.93,243.097 897.763,301.597 926,378.5C 926.732,381.529 927.565,384.529 928.5,387.5C 925.949,390.456 922.949,392.956 919.5,395C 888.272,410.964 855.605,422.964 821.5,431C 786.514,439.046 751.181,445.046 715.5,449C 674.244,452.923 632.911,455.756 591.5,457.5C 596.577,498.45 601.41,539.45 606,580.5C 619.804,602.606 632.971,625.106 645.5,648C 633.066,665.438 620.233,682.605 607,699.5C 605.459,763.517 614.793,825.851 635,886.5C 643.934,912.405 658.101,934.905 677.5,954C 679.717,955.723 682.05,957.223 684.5,958.5 Z"/></g>
<g><path style="opacity:1" fill="#c0d0d0" d="M 503.5,505.5 C 503.556,510.731 502.889,515.731 501.5,520.5C 501.444,515.269 502.111,510.269 503.5,505.5 Z"/></g>
<g><path style="opacity:1" fill="#c1d0d0" d="M 497.5,556.5 C 497.556,561.731 496.889,566.731 495.5,571.5C 495.444,566.269 496.111,561.269 497.5,556.5 Z"/></g>
<g><path style="opacity:1" fill="#4c7979" d="M 415.5,958.5 C 505.167,959.833 594.833,959.833 684.5,958.5C 685.376,958.369 686.043,958.702 686.5,959.5C 595.833,960.833 505.167,960.833 414.5,959.5C 414.624,958.893 414.957,958.56 415.5,958.5 Z"/></g>
</svg>
