<svg fill="#000000" xmlns="http://www.w3.org/2000/svg"  viewBox="0 0 24 24" width="96px" height="96px"><path d="M12,4c-4.418,0-8,3.582-8,8s3.582,8,8,8s8-3.582,8-8S16.418,4,12,4z M12,16c-2.209,0-4-1.791-4-4c0-2.209,1.791-4,4-4s4,1.791,4,4C16,14.209,14.209,16,12,16z"/><path d="M14.917 5l-.426-2.191C14.399 2.339 13.988 2 13.509 2h-3.018c-.479 0-.89.339-.982.809L9.083 5H14.917zM9.083 19l.426 2.191C9.601 21.661 10.012 22 10.491 22h3.018c.479 0 .89-.339.982-.809L14.917 19H9.083zM7.396 5.974l-2.11-.726C4.833 5.092 4.334 5.279 4.094 5.693L2.585 8.307c-.239.415-.151.941.21 1.255l1.684 1.464L7.396 5.974zM16.604 18.026l2.11.726c.453.156.952-.031 1.192-.446l1.509-2.614c.239-.415.151-.941-.21-1.255l-1.684-1.464L16.604 18.026zM4.479 12.974l-1.684 1.464c-.361.314-.449.84-.21 1.255l1.509 2.614c.239.415.739.601 1.192.446l2.11-.726L4.479 12.974zM19.521 11.026l1.684-1.464c.361-.314.449-.84.21-1.255l-1.509-2.614c-.239-.415-.739-.601-1.192-.446l-2.11.726L19.521 11.026z"/></svg>